<svg xmlns="http://www.w3.org/2000/svg" xmlns:xlink="http://www.w3.org/1999/xlink" version="1.1" id="Layer_1" x="0px" y="0px" viewBox="0 0 106.5 34" enable-background="new 0 0 106.5 34" xml:space="preserve">
<g>
	<path d="M17.1 4c-1.9 0-3.7 0.4-5.3 1.1c-1.6 0.7-3 1.7-4.2 2.9c-1.2 1.2-2.1 2.7-2.8 4.4c-0.6 1.7-1 3.5-1 5.5 c0 2.1 0.3 4 0.9 5.7c0.6 1.7 1.5 3.2 2.7 4.4c1.2 1.2 2.6 2.2 4.2 2.9c1.6 0.7 3.5 1 5.5 1c2.4 0 4.6-0.4 6.5-1.3 c1.9-0.9 3.6-2.3 4.9-4.3l-2.4-2c-0.9 1.4-2.2 2.6-3.8 3.4c-1.7 0.9-3.4 1.3-5.2 1.3c-2.1 0-3.8-0.4-5.1-1.2C11 27 9.9 26.1 9.1 25 c-0.8-1.1-1.3-2.2-1.6-3.4c-0.3-1.1-0.4-2.1-0.4-2.8v-0.1h22.5v-2.3c0-1.5-0.3-3-0.8-4.5c-0.5-1.5-1.3-2.8-2.4-4 c-1-1.2-2.4-2.1-3.9-2.8C20.9 4.3 19.1 4 17.1 4z M26.3 15.8H7.1v-0.1c0-0.4 0.2-1 0.5-2c0.3-1 0.8-1.9 1.6-3c0.7-1 1.7-1.9 3-2.7 c1.3-0.8 2.9-1.2 4.8-1.2c1.3 0 2.5 0.2 3.7 0.7c1.1 0.5 2.1 1.1 3 1.9c0.8 0.8 1.5 1.7 2 2.8c0.5 1.1 0.7 2.2 0.7 3.4V15.8z"/>
</g>
<g>
	<path d="M46.7 4C44.8 4 43 4.3 41.4 5c-1.6 0.7-3 1.7-4.2 2.9c-1.2 1.2-2.1 2.7-2.8 4.4c-0.6 1.7-1 3.5-1 5.5 c0 2.1 0.3 4 0.9 5.7c0.6 1.7 1.5 3.2 2.7 4.4c1.2 1.2 2.6 2.2 4.2 2.9c1.6 0.7 3.5 1 5.5 1c2.4 0 4.6-0.4 6.5-1.3 c1.9-0.9 3.6-2.3 4.9-4.3l-2.4-2c-0.9 1.4-2.2 2.6-3.8 3.4c-1.7 0.9-3.4 1.3-5.2 1.3c-2.1 0-3.8-0.4-5.1-1.2 c-1.3-0.8-2.4-1.7-3.1-2.8c-0.8-1.1-1.3-2.2-1.6-3.4c-0.3-1.1-0.4-2.1-0.4-2.8v-0.1h22.5v-2.3c0-1.5-0.3-3-0.8-4.5 C57.8 10.4 57 9 56 7.8c-1-1.2-2.4-2.1-3.9-2.8C50.5 4.3 48.7 4 46.7 4z M55.9 15.8H36.7v-0.1c0-0.4 0.2-1 0.5-2 c0.3-1 0.8-1.9 1.6-3c0.7-1 1.7-1.9 3-2.7c1.3-0.8 2.9-1.2 4.8-1.2c1.3 0 2.5 0.2 3.7 0.7c1.1 0.5 2.1 1.1 3 1.9 c0.8 0.8 1.5 1.7 2 2.8c0.5 1.1 0.7 2.2 0.7 3.4V15.8z"/>
</g>
<g>
	<path  d="M88.7 4c-2 0-3.9 0.3-5.6 1c-1.7 0.7-3.2 1.7-4.4 2.9c-1.2 1.2-2.2 2.7-2.9 4.4c-0.7 1.7-1 3.6-1 5.6 c0 2 0.3 3.9 1 5.6c0.7 1.7 1.7 3.2 2.9 4.4c1.2 1.2 2.7 2.2 4.4 2.9c1.7 0.7 3.6 1 5.6 1c2 0 3.9-0.3 5.6-1 c1.7-0.7 3.2-1.7 4.4-2.9c1.2-1.2 2.2-2.7 2.9-4.4c0.7-1.7 1-3.6 1-5.6c0-2-0.3-3.9-1-5.6c-0.7-1.7-1.7-3.2-2.9-4.4 C97.5 6.7 96 5.7 94.3 5C92.6 4.3 90.7 4 88.7 4z M88.7 29c-1.6 0-3.1-0.3-4.4-0.9c-1.3-0.6-2.5-1.4-3.4-2.4 c-0.9-1-1.7-2.2-2.1-3.5c-0.5-1.3-0.7-2.8-0.7-4.3s0.2-3 0.7-4.3c0.5-1.3 1.2-2.5 2.1-3.5c0.9-1 2.1-1.8 3.4-2.4 c1.3-0.6 2.8-0.9 4.4-0.9c1.6 0 3.1 0.3 4.4 0.9c1.3 0.6 2.5 1.4 3.4 2.4c0.9 1 1.6 2.2 2.1 3.5c0.5 1.3 0.7 2.8 0.7 4.3 s-0.2 3-0.7 4.3c-0.5 1.3-1.2 2.5-2.1 3.5c-0.9 1-2.1 1.8-3.4 2.4C91.8 28.7 90.3 29 88.7 29z"/>
</g>
<g>
	<path d="M63.1 31.2h3.3V16.7c0-1.3 0.2-2.6 0.5-3.7c0.4-1.1 0.9-2.2 1.6-3c0.7-0.9 1.6-1.5 2.8-2 c1.1-0.5 2.4-0.7 3.8-0.7v-3c-3.8 0.1-6.8 1.2-8.8 3.4c-3.4 3.6-3.2 8.9-3.2 8.9L63.1 31.2z"/>
</g>
</svg>
